<svg width="112" height="112" viewBox="0 0 112 112" fill="none" xmlns="http://www.w3.org/2000/svg">
<path fill-rule="evenodd" clip-rule="evenodd" d="M101.389 86.1808C100.325 77.3881 100.877 69.1892 101.718 64.3108L102.704 64.4807C101.878 69.2689 101.33 77.3699 102.382 86.0606C103.435 94.7556 106.083 103.988 111.605 111.089L111.266 111.353L110.942 111.917C110.807 111.84 110.672 111.763 110.536 111.688L110.519 111.704L110.461 111.646C102.753 107.382 93.4514 106.102 84.8736 106.267C76.1211 106.434 68.1752 108.104 63.5484 109.588L63.243 108.636C67.9569 107.124 75.9992 105.436 84.8545 105.267C92.5533 105.12 100.907 106.119 108.228 109.413L0.210793 1.3957L0.9179 0.688594L108.375 108.146C104.341 101.479 102.288 93.5999 101.389 86.1808Z" fill="white"/>
</svg>
